<svg xmlns="http://www.w3.org/2000/svg" viewBox="0 0 582.09 333.76"><defs><style>.cls-1{fill:#474c48;}</style></defs><g id="Layer_2" data-name="Layer 2"><g id="Layer_1-2" data-name="Layer 1"><path class="cls-1" d="M290.06,333.76C273,333,256,332.17,239,329.47a345.22,345.22,0,0,1-63.07-16,352.41,352.41,0,0,1-48.54-21.91A353.4,353.4,0,0,1,75,256.81,309.46,309.46,0,0,1,29.8,212C19.38,199.4,10.32,185.87,1.53,172.13c-1.39-2.18-3-4.09,1-6.33,15.25-8.41,30.18-17.4,45.25-26.15q33.18-19.28,66.4-38.49c18-10.39,36-20.68,54-31.06q36.12-20.85,72.21-41.76Q264.17,14.6,287.9.82a5.27,5.27,0,0,1,5.89.17c10.56,6.15,21.15,12.23,31.73,18.35l44.92,26q23.08,13.39,46.18,26.78c13.38,7.72,26.81,15.35,40.18,23.1,21.7,12.58,43.35,25.25,65.07,37.81,18.5,10.68,37.09,21.19,55.56,31.91,6.37,3.7,5.35,2.5,2,7.94a327.57,327.57,0,0,1-47.23,60,341,341,0,0,1-64.12,50.75,339.69,339.69,0,0,1-78.22,35.11A350.07,350.07,0,0,1,339,330a302.22,302.22,0,0,1-34.78,3.15C299.5,333.31,294.78,333.6,290.06,333.76Z"/></g></g></svg>