<svg xmlns="http://www.w3.org/2000/svg" viewBox="0 0 334.62 504.83"><defs><style>.cls-1{fill:#474c48;}</style></defs><g id="Layer_2" data-name="Layer 2"><g id="Layer_1-2" data-name="Layer 1"><path class="cls-1" d="M334.54,168.94q0,82.19,0,164.38c0,2.6-.57,4-3.08,5.43-12.5,7-24.82,14.24-37.19,21.44-11.61,6.77-23.19,13.61-34.82,20.36-10.57,6.14-21.19,12.19-31.79,18.3l-38.79,22.36q-16.68,9.62-33.36,19.24c-20,11.62-39.94,23.31-59.95,34.9q-24.28,14.07-48.66,28c-4.05,2.32-4,2.23-6.24-1.95A349.38,349.38,0,0,1,16.39,444.3a323.57,323.57,0,0,1-11-43.57,280.85,280.85,0,0,1-4-31.46C.71,358.51-.27,347.73.07,337c.49-15.29,1.27-30.56,3.5-45.76a341.7,341.7,0,0,1,65-156.65c7.07-9.35,14.8-18.18,22.72-26.86a322,322,0,0,1,42-38A326.59,326.59,0,0,1,174.42,42.8a355.61,355.61,0,0,1,59.71-26.66,279.65,279.65,0,0,1,44-10.9A308.5,308.5,0,0,1,310.38,1.4C317.14,1,323.9.3,330.69,0c3.05-.12,3.94.59,3.93,3.8-.14,29.58-.08,59.16-.08,88.74Z"/></g></g></svg>