<svg xmlns="http://www.w3.org/2000/svg" viewBox="0 0 334.68 504.73"><defs><style>.cls-1{fill:#474c48;}</style></defs><g id="Layer_2" data-name="Layer 2"><g id="Layer_1-2" data-name="Layer 1"><path class="cls-1" d="M.08,168.56q0-82-.08-164C0,1.09.55-.28,4.35.05,15.65,1,27,1.59,38.24,2.89A318.92,318.92,0,0,1,91.36,13.72,327.92,327.92,0,0,1,135.2,30a359.1,359.1,0,0,1,39.43,21.07,332.87,332.87,0,0,1,33.26,23.6,294.74,294.74,0,0,1,32.67,29.79c17.75,19.13,33.7,39.62,47,62.21a357.59,357.59,0,0,1,28.69,61.61A299.65,299.65,0,0,1,330,282.12c1.85,11.66,3.41,23.35,4.1,35.19.8,13.71.74,27.41.35,41.08a302.66,302.66,0,0,1-4.08,38.12,323.17,323.17,0,0,1-10.8,46.28,326.51,326.51,0,0,1-14.69,37.39c-3.45,7.56-7.47,14.81-11.17,22.23-1.08,2.17-1.8,3.11-4.5,1.54-17.52-10.25-35.2-20.22-52.68-30.55-18.95-11.2-38.21-21.87-57.28-32.87-16.31-9.42-32.5-19-48.8-28.47-15.25-8.83-30.57-17.54-45.84-26.32q-21.93-12.62-43.82-25.27c-12.8-7.39-25.57-14.81-38.39-22.14-2.08-1.2-2.3-2.9-2.3-5Q.1,250.94.08,168.56Z"/></g></g></svg>